<svg xmlns="http://www.w3.org/2000/svg" viewBox="0 0 19.11 19.11"><defs><style>.cls-1{fill:#fff;}</style></defs><title>info</title><g id="Layer_2" data-name="Layer 2"><g id="Layer_1-2" data-name="Layer 1"><path class="cls-1" d="M9.55,14.33a.79.79,0,0,0,.57-.23.75.75,0,0,0,.22-.56.76.76,0,0,0-.22-.56.79.79,0,0,0-.57-.23A.77.77,0,0,0,9,13a.76.76,0,0,0-.22.56A.75.75,0,0,0,9,14.1.77.77,0,0,0,9.55,14.33Zm-.64-3.65h1.43v-6H8.91Zm.64,8.43a9.27,9.27,0,0,1-3.7-.75,9.73,9.73,0,0,1-5.1-5.1A9.38,9.38,0,0,1,0,9.53a9.24,9.24,0,0,1,.75-3.7,9.56,9.56,0,0,1,2.06-3,9.67,9.67,0,0,1,3-2A9.34,9.34,0,0,1,9.58,0a9.27,9.27,0,0,1,3.7.75,9.63,9.63,0,0,1,3,2,9.87,9.87,0,0,1,2.05,3,9.3,9.3,0,0,1,.75,3.72,9.32,9.32,0,0,1-.75,3.71,10,10,0,0,1-2.05,3,9.68,9.68,0,0,1-3,2.06A9.31,9.31,0,0,1,9.55,19.11Zm0-1.44a7.81,7.81,0,0,0,5.73-2.37,7.87,7.87,0,0,0,2.36-5.77A7.77,7.77,0,0,0,15.31,3.8,7.84,7.84,0,0,0,9.55,1.43,7.83,7.83,0,0,0,3.81,3.8,7.81,7.81,0,0,0,1.43,9.55,7.86,7.86,0,0,0,3.81,15.3,7.86,7.86,0,0,0,9.58,17.67Z"/></g></g></svg>