<svg xmlns="http://www.w3.org/2000/svg" viewBox="0 0 26.81 15.48"><defs><style>.cls-1,.cls-2{fill:#fff;}.cls-2{opacity:0.6;}</style></defs><title>logo</title><g id="Layer_2" data-name="Layer 2"><g id="Layer_1-2" data-name="Layer 1"><path class="cls-1" d="M7.33,0H10V10.71A4.53,4.53,0,0,1,8.6,14.19,5,5,0,0,1,5,15.48,5.21,5.21,0,0,1,1.3,14.27,4.33,4.33,0,0,1,0,10.92H2.64a2.48,2.48,0,0,0,.61,1.83A2.32,2.32,0,0,0,5,13.36a2.21,2.21,0,0,0,1.71-.71,2.82,2.82,0,0,0,.63-2Z"/><path class="cls-2" d="M26.81,9.52l-.44-1.17H19.06l-.73-1.94h7.31l-.43-1.16H17.89L17.15,3.3h7.33l-.43-1.16H16.71L15.9,0H13.52L6.43,15.33a6.2,6.2,0,0,0,3.31-1,9.41,9.41,0,0,0,2-2.63h5.91l1.25,3.56h2.77L19.5,9.52Zm-14.32.05,2.22-6.33,2.21,6.33Z"/></g></g></svg>