<svg xmlns="http://www.w3.org/2000/svg" viewBox="0 0 14 14"><defs><style>.cls-1{fill:#bdbdbd;}</style></defs><title>search</title><g id="Layer_2" data-name="Layer 2"><g id="Layer_1-2" data-name="Layer 1"><path class="cls-1" d="M13.14,14,8,8.89a4.24,4.24,0,0,1-1.36.78A4.77,4.77,0,0,1,5,10,4.85,4.85,0,0,1,1.46,8.5,4.83,4.83,0,0,1,0,5,4.79,4.79,0,0,1,1.46,1.46,4.82,4.82,0,0,1,5,0,4.79,4.79,0,0,1,8.51,1.46,4.82,4.82,0,0,1,10,5,5,5,0,0,1,8.87,8.05L14,13.14ZM5,8.79A3.62,3.62,0,0,0,7.68,7.67,3.67,3.67,0,0,0,8.79,5a3.71,3.71,0,0,0-1.11-2.7A3.65,3.65,0,0,0,5,1.17,3.72,3.72,0,0,0,2.28,2.28,3.71,3.71,0,0,0,1.17,5,3.67,3.67,0,0,0,2.28,7.67,3.69,3.69,0,0,0,5,8.79Z"/></g></g></svg>